<?xml version="1.0" encoding="UTF-8"?>
<!DOCTYPE svg
  PUBLIC '-//W3C//DTD SVG 1.1//EN'
  'http://www.w3.org/Graphics/SVG/1.1/DTD/svg11.dtd'>
<svg height="23.000mm" version="1.1" width="86.000mm" xmlns="http://www.w3.org/2000/svg">
    <!--Autogenerated with python-barcode 0.9.0-->
    <g id="barcode_group">
        <rect height="100%" style="fill:white" width="100%"/>
        <rect height="15.000mm" style="fill:black;" width="0.400mm" x="2.540mm" y="1.000mm"/>
        <rect height="15.000mm" style="fill:white;" width="0.200mm" x="2.940mm" y="1.000mm"/>
        <rect height="15.000mm" style="fill:black;" width="0.200mm" x="3.140mm" y="1.000mm"/>
        <rect height="15.000mm" style="fill:white;" width="0.400mm" x="3.340mm" y="1.000mm"/>
        <rect height="15.000mm" style="fill:black;" width="0.200mm" x="3.740mm" y="1.000mm"/>
        <rect height="15.000mm" style="fill:white;" width="0.800mm" x="3.940mm" y="1.000mm"/>
        <rect height="15.000mm" style="fill:black;" width="0.400mm" x="4.740mm" y="1.000mm"/>
        <rect height="15.000mm" style="fill:white;" width="0.200mm" x="5.140mm" y="1.000mm"/>
        <rect height="15.000mm" style="fill:black;" width="0.600mm" x="5.340mm" y="1.000mm"/>
        <rect height="15.000mm" style="fill:white;" width="0.400mm" x="5.940mm" y="1.000mm"/>
        <rect height="15.000mm" style="fill:black;" width="0.200mm" x="6.340mm" y="1.000mm"/>
        <rect height="15.000mm" style="fill:white;" width="0.400mm" x="6.540mm" y="1.000mm"/>
        <rect height="15.000mm" style="fill:black;" width="0.200mm" x="6.940mm" y="1.000mm"/>
        <rect height="15.000mm" style="fill:white;" width="0.400mm" x="7.140mm" y="1.000mm"/>
        <rect height="15.000mm" style="fill:black;" width="0.600mm" x="7.540mm" y="1.000mm"/>
        <rect height="15.000mm" style="fill:white;" width="0.200mm" x="8.140mm" y="1.000mm"/>
        <rect height="15.000mm" style="fill:black;" width="0.400mm" x="8.340mm" y="1.000mm"/>
        <rect height="15.000mm" style="fill:white;" width="0.400mm" x="8.740mm" y="1.000mm"/>
        <rect height="15.000mm" style="fill:black;" width="0.200mm" x="9.140mm" y="1.000mm"/>
        <rect height="15.000mm" style="fill:white;" width="0.400mm" x="9.340mm" y="1.000mm"/>
        <rect height="15.000mm" style="fill:black;" width="0.600mm" x="9.740mm" y="1.000mm"/>
        <rect height="15.000mm" style="fill:white;" width="0.400mm" x="10.340mm" y="1.000mm"/>
        <rect height="15.000mm" style="fill:black;" width="0.400mm" x="10.740mm" y="1.000mm"/>
        <rect height="15.000mm" style="fill:white;" width="0.200mm" x="11.140mm" y="1.000mm"/>
        <rect height="15.000mm" style="fill:black;" width="0.200mm" x="11.340mm" y="1.000mm"/>
        <rect height="15.000mm" style="fill:white;" width="0.400mm" x="11.540mm" y="1.000mm"/>
        <rect height="15.000mm" style="fill:black;" width="0.200mm" x="11.940mm" y="1.000mm"/>
        <rect height="15.000mm" style="fill:white;" width="0.200mm" x="12.140mm" y="1.000mm"/>
        <rect height="15.000mm" style="fill:black;" width="0.400mm" x="12.340mm" y="1.000mm"/>
        <rect height="15.000mm" style="fill:white;" width="0.800mm" x="12.740mm" y="1.000mm"/>
        <rect height="15.000mm" style="fill:black;" width="0.200mm" x="13.540mm" y="1.000mm"/>
        <rect height="15.000mm" style="fill:white;" width="0.200mm" x="13.740mm" y="1.000mm"/>
        <rect height="15.000mm" style="fill:black;" width="0.400mm" x="13.940mm" y="1.000mm"/>
        <rect height="15.000mm" style="fill:white;" width="0.400mm" x="14.340mm" y="1.000mm"/>
        <rect height="15.000mm" style="fill:black;" width="0.200mm" x="14.740mm" y="1.000mm"/>
        <rect height="15.000mm" style="fill:white;" width="0.800mm" x="14.940mm" y="1.000mm"/>
        <rect height="15.000mm" style="fill:black;" width="0.400mm" x="15.740mm" y="1.000mm"/>
        <rect height="15.000mm" style="fill:white;" width="0.400mm" x="16.140mm" y="1.000mm"/>
        <rect height="15.000mm" style="fill:black;" width="0.200mm" x="16.540mm" y="1.000mm"/>
        <rect height="15.000mm" style="fill:white;" width="0.400mm" x="16.740mm" y="1.000mm"/>
        <rect height="15.000mm" style="fill:black;" width="0.600mm" x="17.140mm" y="1.000mm"/>
        <rect height="15.000mm" style="fill:white;" width="0.200mm" x="17.740mm" y="1.000mm"/>
        <rect height="15.000mm" style="fill:black;" width="0.200mm" x="17.940mm" y="1.000mm"/>
        <rect height="15.000mm" style="fill:white;" width="0.800mm" x="18.140mm" y="1.000mm"/>
        <rect height="15.000mm" style="fill:black;" width="0.200mm" x="18.940mm" y="1.000mm"/>
        <rect height="15.000mm" style="fill:white;" width="0.400mm" x="19.140mm" y="1.000mm"/>
        <rect height="15.000mm" style="fill:black;" width="0.400mm" x="19.540mm" y="1.000mm"/>
        <rect height="15.000mm" style="fill:white;" width="0.200mm" x="19.940mm" y="1.000mm"/>
        <rect height="15.000mm" style="fill:black;" width="0.400mm" x="20.140mm" y="1.000mm"/>
        <rect height="15.000mm" style="fill:white;" width="0.400mm" x="20.540mm" y="1.000mm"/>
        <rect height="15.000mm" style="fill:black;" width="0.600mm" x="20.940mm" y="1.000mm"/>
        <rect height="15.000mm" style="fill:white;" width="0.400mm" x="21.540mm" y="1.000mm"/>
        <rect height="15.000mm" style="fill:black;" width="0.200mm" x="21.940mm" y="1.000mm"/>
        <rect height="15.000mm" style="fill:white;" width="0.200mm" x="22.140mm" y="1.000mm"/>
        <rect height="15.000mm" style="fill:black;" width="0.200mm" x="22.340mm" y="1.000mm"/>
        <rect height="15.000mm" style="fill:white;" width="0.400mm" x="22.540mm" y="1.000mm"/>
        <rect height="15.000mm" style="fill:black;" width="0.400mm" x="22.940mm" y="1.000mm"/>
        <rect height="15.000mm" style="fill:white;" width="0.200mm" x="23.340mm" y="1.000mm"/>
        <rect height="15.000mm" style="fill:black;" width="0.600mm" x="23.540mm" y="1.000mm"/>
        <rect height="15.000mm" style="fill:white;" width="0.400mm" x="24.140mm" y="1.000mm"/>
        <rect height="15.000mm" style="fill:black;" width="0.200mm" x="24.540mm" y="1.000mm"/>
        <rect height="15.000mm" style="fill:white;" width="0.800mm" x="24.740mm" y="1.000mm"/>
        <rect height="15.000mm" style="fill:black;" width="0.200mm" x="25.540mm" y="1.000mm"/>
        <rect height="15.000mm" style="fill:white;" width="0.200mm" x="25.740mm" y="1.000mm"/>
        <rect height="15.000mm" style="fill:black;" width="0.400mm" x="25.940mm" y="1.000mm"/>
        <rect height="15.000mm" style="fill:white;" width="0.400mm" x="26.340mm" y="1.000mm"/>
        <rect height="15.000mm" style="fill:black;" width="0.600mm" x="26.740mm" y="1.000mm"/>
        <rect height="15.000mm" style="fill:white;" width="0.400mm" x="27.340mm" y="1.000mm"/>
        <rect height="15.000mm" style="fill:black;" width="0.200mm" x="27.740mm" y="1.000mm"/>
        <rect height="15.000mm" style="fill:white;" width="0.200mm" x="27.940mm" y="1.000mm"/>
        <rect height="15.000mm" style="fill:black;" width="0.400mm" x="28.140mm" y="1.000mm"/>
        <rect height="15.000mm" style="fill:white;" width="0.400mm" x="28.540mm" y="1.000mm"/>
        <rect height="15.000mm" style="fill:black;" width="0.200mm" x="28.940mm" y="1.000mm"/>
        <rect height="15.000mm" style="fill:white;" width="0.400mm" x="29.140mm" y="1.000mm"/>
        <rect height="15.000mm" style="fill:black;" width="0.600mm" x="29.540mm" y="1.000mm"/>
        <rect height="15.000mm" style="fill:white;" width="0.400mm" x="30.140mm" y="1.000mm"/>
        <rect height="15.000mm" style="fill:black;" width="0.400mm" x="30.540mm" y="1.000mm"/>
        <rect height="15.000mm" style="fill:white;" width="0.200mm" x="30.940mm" y="1.000mm"/>
        <rect height="15.000mm" style="fill:black;" width="0.600mm" x="31.140mm" y="1.000mm"/>
        <rect height="15.000mm" style="fill:white;" width="0.200mm" x="31.740mm" y="1.000mm"/>
        <rect height="15.000mm" style="fill:black;" width="0.200mm" x="31.940mm" y="1.000mm"/>
        <rect height="15.000mm" style="fill:white;" width="0.400mm" x="32.140mm" y="1.000mm"/>
        <rect height="15.000mm" style="fill:black;" width="0.400mm" x="32.540mm" y="1.000mm"/>
        <rect height="15.000mm" style="fill:white;" width="0.400mm" x="32.940mm" y="1.000mm"/>
        <rect height="15.000mm" style="fill:black;" width="0.200mm" x="33.340mm" y="1.000mm"/>
        <rect height="15.000mm" style="fill:white;" width="0.400mm" x="33.540mm" y="1.000mm"/>
        <rect height="15.000mm" style="fill:black;" width="0.400mm" x="33.940mm" y="1.000mm"/>
        <rect height="15.000mm" style="fill:white;" width="0.200mm" x="34.340mm" y="1.000mm"/>
        <rect height="15.000mm" style="fill:black;" width="0.600mm" x="34.540mm" y="1.000mm"/>
        <rect height="15.000mm" style="fill:white;" width="0.400mm" x="35.140mm" y="1.000mm"/>
        <rect height="15.000mm" style="fill:black;" width="0.400mm" x="35.540mm" y="1.000mm"/>
        <rect height="15.000mm" style="fill:white;" width="0.400mm" x="35.940mm" y="1.000mm"/>
        <rect height="15.000mm" style="fill:black;" width="0.200mm" x="36.340mm" y="1.000mm"/>
        <rect height="15.000mm" style="fill:white;" width="0.400mm" x="36.540mm" y="1.000mm"/>
        <rect height="15.000mm" style="fill:black;" width="0.600mm" x="36.940mm" y="1.000mm"/>
        <rect height="15.000mm" style="fill:white;" width="0.200mm" x="37.540mm" y="1.000mm"/>
        <rect height="15.000mm" style="fill:black;" width="0.200mm" x="37.740mm" y="1.000mm"/>
        <rect height="15.000mm" style="fill:white;" width="0.400mm" x="37.940mm" y="1.000mm"/>
        <rect height="15.000mm" style="fill:black;" width="0.200mm" x="38.340mm" y="1.000mm"/>
        <rect height="15.000mm" style="fill:white;" width="0.200mm" x="38.540mm" y="1.000mm"/>
        <rect height="15.000mm" style="fill:black;" width="0.400mm" x="38.740mm" y="1.000mm"/>
        <rect height="15.000mm" style="fill:white;" width="0.800mm" x="39.140mm" y="1.000mm"/>
        <rect height="15.000mm" style="fill:black;" width="0.200mm" x="39.940mm" y="1.000mm"/>
        <rect height="15.000mm" style="fill:white;" width="0.400mm" x="40.140mm" y="1.000mm"/>
        <rect height="15.000mm" style="fill:black;" width="0.200mm" x="40.540mm" y="1.000mm"/>
        <rect height="15.000mm" style="fill:white;" width="0.200mm" x="40.740mm" y="1.000mm"/>
        <rect height="15.000mm" style="fill:black;" width="0.400mm" x="40.940mm" y="1.000mm"/>
        <rect height="15.000mm" style="fill:white;" width="0.800mm" x="41.340mm" y="1.000mm"/>
        <rect height="15.000mm" style="fill:black;" width="0.200mm" x="42.140mm" y="1.000mm"/>
        <rect height="15.000mm" style="fill:white;" width="0.200mm" x="42.340mm" y="1.000mm"/>
        <rect height="15.000mm" style="fill:black;" width="0.400mm" x="42.540mm" y="1.000mm"/>
        <rect height="15.000mm" style="fill:white;" width="0.400mm" x="42.940mm" y="1.000mm"/>
        <rect height="15.000mm" style="fill:black;" width="0.200mm" x="43.340mm" y="1.000mm"/>
        <rect height="15.000mm" style="fill:white;" width="0.800mm" x="43.540mm" y="1.000mm"/>
        <rect height="15.000mm" style="fill:black;" width="0.200mm" x="44.340mm" y="1.000mm"/>
        <rect height="15.000mm" style="fill:white;" width="0.400mm" x="44.540mm" y="1.000mm"/>
        <rect height="15.000mm" style="fill:black;" width="0.400mm" x="44.940mm" y="1.000mm"/>
        <rect height="15.000mm" style="fill:white;" width="0.200mm" x="45.340mm" y="1.000mm"/>
        <rect height="15.000mm" style="fill:black;" width="0.600mm" x="45.540mm" y="1.000mm"/>
        <rect height="15.000mm" style="fill:white;" width="0.400mm" x="46.140mm" y="1.000mm"/>
        <rect height="15.000mm" style="fill:black;" width="0.600mm" x="46.540mm" y="1.000mm"/>
        <rect height="15.000mm" style="fill:white;" width="0.200mm" x="47.140mm" y="1.000mm"/>
        <rect height="15.000mm" style="fill:black;" width="0.200mm" x="47.340mm" y="1.000mm"/>
        <rect height="15.000mm" style="fill:white;" width="0.400mm" x="47.540mm" y="1.000mm"/>
        <rect height="15.000mm" style="fill:black;" width="0.400mm" x="47.940mm" y="1.000mm"/>
        <rect height="15.000mm" style="fill:white;" width="0.400mm" x="48.340mm" y="1.000mm"/>
        <rect height="15.000mm" style="fill:black;" width="0.200mm" x="48.740mm" y="1.000mm"/>
        <rect height="15.000mm" style="fill:white;" width="0.400mm" x="48.940mm" y="1.000mm"/>
        <rect height="15.000mm" style="fill:black;" width="0.200mm" x="49.340mm" y="1.000mm"/>
        <rect height="15.000mm" style="fill:white;" width="0.200mm" x="49.540mm" y="1.000mm"/>
        <rect height="15.000mm" style="fill:black;" width="0.400mm" x="49.740mm" y="1.000mm"/>
        <rect height="15.000mm" style="fill:white;" width="0.800mm" x="50.140mm" y="1.000mm"/>
        <rect height="15.000mm" style="fill:black;" width="0.400mm" x="50.940mm" y="1.000mm"/>
        <rect height="15.000mm" style="fill:white;" width="0.400mm" x="51.340mm" y="1.000mm"/>
        <rect height="15.000mm" style="fill:black;" width="0.200mm" x="51.740mm" y="1.000mm"/>
        <rect height="15.000mm" style="fill:white;" width="0.200mm" x="51.940mm" y="1.000mm"/>
        <rect height="15.000mm" style="fill:black;" width="0.600mm" x="52.140mm" y="1.000mm"/>
        <rect height="15.000mm" style="fill:white;" width="0.400mm" x="52.740mm" y="1.000mm"/>
        <rect height="15.000mm" style="fill:black;" width="0.200mm" x="53.140mm" y="1.000mm"/>
        <rect height="15.000mm" style="fill:white;" width="0.400mm" x="53.340mm" y="1.000mm"/>
        <rect height="15.000mm" style="fill:black;" width="0.600mm" x="53.740mm" y="1.000mm"/>
        <rect height="15.000mm" style="fill:white;" width="0.400mm" x="54.340mm" y="1.000mm"/>
        <rect height="15.000mm" style="fill:black;" width="0.400mm" x="54.740mm" y="1.000mm"/>
        <rect height="15.000mm" style="fill:white;" width="0.200mm" x="55.140mm" y="1.000mm"/>
        <rect height="15.000mm" style="fill:black;" width="0.200mm" x="55.340mm" y="1.000mm"/>
        <rect height="15.000mm" style="fill:white;" width="0.400mm" x="55.540mm" y="1.000mm"/>
        <rect height="15.000mm" style="fill:black;" width="0.400mm" x="55.940mm" y="1.000mm"/>
        <rect height="15.000mm" style="fill:white;" width="0.200mm" x="56.340mm" y="1.000mm"/>
        <rect height="15.000mm" style="fill:black;" width="0.600mm" x="56.540mm" y="1.000mm"/>
        <rect height="15.000mm" style="fill:white;" width="0.400mm" x="57.140mm" y="1.000mm"/>
        <rect height="15.000mm" style="fill:black;" width="0.200mm" x="57.540mm" y="1.000mm"/>
        <rect height="15.000mm" style="fill:white;" width="0.200mm" x="57.740mm" y="1.000mm"/>
        <rect height="15.000mm" style="fill:black;" width="0.600mm" x="57.940mm" y="1.000mm"/>
        <rect height="15.000mm" style="fill:white;" width="0.200mm" x="58.540mm" y="1.000mm"/>
        <rect height="15.000mm" style="fill:black;" width="0.800mm" x="58.740mm" y="1.000mm"/>
        <rect height="15.000mm" style="fill:white;" width="0.200mm" x="59.540mm" y="1.000mm"/>
        <rect height="15.000mm" style="fill:black;" width="0.400mm" x="59.740mm" y="1.000mm"/>
        <rect height="15.000mm" style="fill:white;" width="0.600mm" x="60.140mm" y="1.000mm"/>
        <rect height="15.000mm" style="fill:black;" width="0.200mm" x="60.740mm" y="1.000mm"/>
        <rect height="15.000mm" style="fill:white;" width="0.400mm" x="60.940mm" y="1.000mm"/>
        <rect height="15.000mm" style="fill:black;" width="0.200mm" x="61.340mm" y="1.000mm"/>
        <rect height="15.000mm" style="fill:white;" width="0.400mm" x="61.540mm" y="1.000mm"/>
        <rect height="15.000mm" style="fill:black;" width="0.400mm" x="61.940mm" y="1.000mm"/>
        <rect height="15.000mm" style="fill:white;" width="0.200mm" x="62.340mm" y="1.000mm"/>
        <rect height="15.000mm" style="fill:black;" width="0.400mm" x="62.540mm" y="1.000mm"/>
        <rect height="15.000mm" style="fill:white;" width="0.600mm" x="62.940mm" y="1.000mm"/>
        <rect height="15.000mm" style="fill:black;" width="0.400mm" x="63.540mm" y="1.000mm"/>
        <rect height="15.000mm" style="fill:white;" width="0.200mm" x="63.940mm" y="1.000mm"/>
        <rect height="15.000mm" style="fill:black;" width="0.400mm" x="64.140mm" y="1.000mm"/>
        <rect height="15.000mm" style="fill:white;" width="0.200mm" x="64.540mm" y="1.000mm"/>
        <rect height="15.000mm" style="fill:black;" width="0.600mm" x="64.740mm" y="1.000mm"/>
        <rect height="15.000mm" style="fill:white;" width="0.600mm" x="65.340mm" y="1.000mm"/>
        <rect height="15.000mm" style="fill:black;" width="0.200mm" x="65.940mm" y="1.000mm"/>
        <rect height="15.000mm" style="fill:white;" width="0.200mm" x="66.140mm" y="1.000mm"/>
        <rect height="15.000mm" style="fill:black;" width="0.400mm" x="66.340mm" y="1.000mm"/>
        <rect height="15.000mm" style="fill:white;" width="0.200mm" x="66.740mm" y="1.000mm"/>
        <rect height="15.000mm" style="fill:black;" width="0.800mm" x="66.940mm" y="1.000mm"/>
        <rect height="15.000mm" style="fill:white;" width="0.200mm" x="67.740mm" y="1.000mm"/>
        <rect height="15.000mm" style="fill:black;" width="0.400mm" x="67.940mm" y="1.000mm"/>
        <rect height="15.000mm" style="fill:white;" width="0.200mm" x="68.340mm" y="1.000mm"/>
        <rect height="15.000mm" style="fill:black;" width="0.200mm" x="68.540mm" y="1.000mm"/>
        <rect height="15.000mm" style="fill:white;" width="0.200mm" x="68.740mm" y="1.000mm"/>
        <rect height="15.000mm" style="fill:black;" width="0.800mm" x="68.940mm" y="1.000mm"/>
        <rect height="15.000mm" style="fill:white;" width="0.200mm" x="69.740mm" y="1.000mm"/>
        <rect height="15.000mm" style="fill:black;" width="0.600mm" x="69.940mm" y="1.000mm"/>
        <rect height="15.000mm" style="fill:white;" width="0.200mm" x="70.540mm" y="1.000mm"/>
        <rect height="15.000mm" style="fill:black;" width="0.200mm" x="70.740mm" y="1.000mm"/>
        <rect height="15.000mm" style="fill:white;" width="0.800mm" x="70.940mm" y="1.000mm"/>
        <rect height="15.000mm" style="fill:black;" width="0.200mm" x="71.740mm" y="1.000mm"/>
        <rect height="15.000mm" style="fill:white;" width="0.200mm" x="71.940mm" y="1.000mm"/>
        <rect height="15.000mm" style="fill:black;" width="0.400mm" x="72.140mm" y="1.000mm"/>
        <rect height="15.000mm" style="fill:white;" width="0.400mm" x="72.540mm" y="1.000mm"/>
        <rect height="15.000mm" style="fill:black;" width="0.400mm" x="72.940mm" y="1.000mm"/>
        <rect height="15.000mm" style="fill:white;" width="0.400mm" x="73.340mm" y="1.000mm"/>
        <rect height="15.000mm" style="fill:black;" width="0.200mm" x="73.740mm" y="1.000mm"/>
        <rect height="15.000mm" style="fill:white;" width="0.400mm" x="73.940mm" y="1.000mm"/>
        <rect height="15.000mm" style="fill:black;" width="0.600mm" x="74.340mm" y="1.000mm"/>
        <rect height="15.000mm" style="fill:white;" width="0.200mm" x="74.940mm" y="1.000mm"/>
        <rect height="15.000mm" style="fill:black;" width="0.200mm" x="75.140mm" y="1.000mm"/>
        <rect height="15.000mm" style="fill:white;" width="0.800mm" x="75.340mm" y="1.000mm"/>
        <rect height="15.000mm" style="fill:black;" width="0.200mm" x="76.140mm" y="1.000mm"/>
        <rect height="15.000mm" style="fill:white;" width="0.200mm" x="76.340mm" y="1.000mm"/>
        <rect height="15.000mm" style="fill:black;" width="0.400mm" x="76.540mm" y="1.000mm"/>
        <rect height="15.000mm" style="fill:white;" width="0.400mm" x="76.940mm" y="1.000mm"/>
        <rect height="15.000mm" style="fill:black;" width="0.400mm" x="77.340mm" y="1.000mm"/>
        <rect height="15.000mm" style="fill:white;" width="0.400mm" x="77.740mm" y="1.000mm"/>
        <rect height="15.000mm" style="fill:black;" width="0.600mm" x="78.140mm" y="1.000mm"/>
        <rect height="15.000mm" style="fill:white;" width="0.400mm" x="78.740mm" y="1.000mm"/>
        <rect height="15.000mm" style="fill:black;" width="0.200mm" x="79.140mm" y="1.000mm"/>
        <rect height="15.000mm" style="fill:white;" width="0.200mm" x="79.340mm" y="1.000mm"/>
        <rect height="15.000mm" style="fill:black;" width="0.400mm" x="79.540mm" y="1.000mm"/>
        <rect height="15.000mm" style="fill:white;" width="0.200mm" x="79.940mm" y="1.000mm"/>
        <rect height="15.000mm" style="fill:black;" width="0.200mm" x="80.140mm" y="1.000mm"/>
        <rect height="15.000mm" style="fill:white;" width="0.600mm" x="80.340mm" y="1.000mm"/>
        <rect height="15.000mm" style="fill:black;" width="0.600mm" x="80.940mm" y="1.000mm"/>
        <rect height="15.000mm" style="fill:white;" width="0.200mm" x="81.540mm" y="1.000mm"/>
        <rect height="15.000mm" style="fill:black;" width="0.400mm" x="81.740mm" y="1.000mm"/>
        <rect height="15.000mm" style="fill:white;" width="0.600mm" x="82.140mm" y="1.000mm"/>
        <rect height="15.000mm" style="fill:black;" width="0.600mm" x="82.740mm" y="1.000mm"/>
        <rect height="15.000mm" style="fill:white;" width="0.200mm" x="83.340mm" y="1.000mm"/>
        <rect height="15.000mm" style="fill:black;" width="0.200mm" x="83.540mm" y="1.000mm"/>
        <rect height="15.000mm" style="fill:white;" width="0.200mm" x="83.740mm" y="1.000mm"/>
        <rect height="15.000mm" style="fill:black;" width="0.400mm" x="83.940mm" y="1.000mm"/>
        <text style="fill:black;font-size:10pt;text-anchor:middle;" x="43.440mm" y="21.000mm">501ae4d2-c918-4aae-8a31-11315290c4c2</text>
    </g>
</svg>
